G04 #@! TF.FileFunction,Legend,Bot*
%FSLAX46Y46*%
G04 Gerber Fmt 4.6, Leading zero omitted, Abs format (unit mm)*
G04 Created by KiCad (PCBNEW (2015-04-05 BZR 5577)-product) date Út 4. srpen 2015, 12:36:27 CEST*
%MOMM*%
G01*
G04 APERTURE LIST*
%ADD10C,0.100000*%
%ADD11C,0.150000*%
%ADD12C,0.200000*%
G04 APERTURE END LIST*
D10*
D11*
X196920952Y-100091429D02*
X196159047Y-100091429D01*
X196539999Y-100472381D02*
X196539999Y-99710476D01*
X196960000Y-97481429D02*
X196198095Y-97481429D01*
D12*
X174000000Y-96000000D02*
X209000000Y-96000000D01*
X174000000Y-133000000D02*
X209000000Y-133000000D01*
D11*
X200264000Y-97186000D02*
X199756000Y-97186000D01*
X200264000Y-97694000D02*
X199756000Y-97694000D01*
X200264000Y-98710000D02*
X202804000Y-98710000D01*
X200264000Y-98710000D02*
X200264000Y-96170000D01*
X200264000Y-96170000D02*
X202804000Y-96170000D01*
X202804000Y-97694000D02*
X208900000Y-97694000D01*
X208900000Y-97694000D02*
X208900000Y-97186000D01*
X208900000Y-97186000D02*
X202804000Y-97186000D01*
X202804000Y-96170000D02*
X202804000Y-98710000D01*
X202804000Y-98710000D02*
X200264000Y-101250000D01*
X202804000Y-101250000D02*
X200264000Y-98710000D01*
X202931000Y-100107000D02*
X208773000Y-100107000D01*
X208773000Y-100107000D02*
X208773000Y-99853000D01*
X208773000Y-99853000D02*
X202931000Y-99853000D01*
X202931000Y-99980000D02*
X208773000Y-99980000D01*
X200264000Y-99726000D02*
X199756000Y-99726000D01*
X200264000Y-100234000D02*
X199756000Y-100234000D01*
X200264000Y-101250000D02*
X202804000Y-101250000D01*
X200264000Y-101250000D02*
X200264000Y-98710000D01*
X200264000Y-98710000D02*
X202804000Y-98710000D01*
X202804000Y-100234000D02*
X208900000Y-100234000D01*
X208900000Y-100234000D02*
X208900000Y-99726000D01*
X208900000Y-99726000D02*
X202804000Y-99726000D01*
X202804000Y-98710000D02*
X202804000Y-101250000D01*
X188354000Y-125770000D02*
X185814000Y-128310000D01*
X188354000Y-128310000D02*
X185814000Y-125770000D01*
X188481000Y-127167000D02*
X194323000Y-127167000D01*
X194323000Y-127167000D02*
X194323000Y-126913000D01*
X194323000Y-126913000D02*
X188481000Y-126913000D01*
X188481000Y-127040000D02*
X194323000Y-127040000D01*
X185814000Y-126786000D02*
X185306000Y-126786000D01*
X185814000Y-127294000D02*
X185306000Y-127294000D01*
X185814000Y-128310000D02*
X188354000Y-128310000D01*
X185814000Y-128310000D02*
X185814000Y-125770000D01*
X185814000Y-125770000D02*
X188354000Y-125770000D01*
X188354000Y-127294000D02*
X194450000Y-127294000D01*
X194450000Y-127294000D02*
X194450000Y-126786000D01*
X194450000Y-126786000D02*
X188354000Y-126786000D01*
X188354000Y-125770000D02*
X188354000Y-128310000D01*
X194858571Y-96710000D02*
X193358571Y-96710000D01*
X193358571Y-97281428D01*
X193430000Y-97424286D01*
X193501429Y-97495714D01*
X193644286Y-97567143D01*
X193858571Y-97567143D01*
X194001429Y-97495714D01*
X194072857Y-97424286D01*
X194144286Y-97281428D01*
X194144286Y-96710000D01*
X193358571Y-98067143D02*
X194858571Y-98424286D01*
X193787143Y-98710000D01*
X194858571Y-98995714D01*
X193358571Y-99352857D01*
X194858571Y-100781429D02*
X194144286Y-100281429D01*
X194858571Y-99924286D02*
X193358571Y-99924286D01*
X193358571Y-100495714D01*
X193430000Y-100638572D01*
X193501429Y-100710000D01*
X193644286Y-100781429D01*
X193858571Y-100781429D01*
X194001429Y-100710000D01*
X194072857Y-100638572D01*
X194144286Y-100495714D01*
X194144286Y-99924286D01*
M02*
