G04 #@! TF.FileFunction,Legend,Top*
%FSLAX46Y46*%
G04 Gerber Fmt 4.6, Leading zero omitted, Abs format (unit mm)*
G04 Created by KiCad (PCBNEW (2015-04-05 BZR 5577)-product) date Út 4. srpen 2015, 12:36:27 CEST*
%MOMM*%
G01*
G04 APERTURE LIST*
%ADD10C,0.100000*%
%ADD11C,0.150000*%
%ADD12C,0.203200*%
%ADD13C,0.127000*%
%ADD14C,0.152400*%
G04 APERTURE END LIST*
D10*
D11*
X203865000Y-110180000D02*
X203865000Y-111380000D01*
X202115000Y-111380000D02*
X202115000Y-110180000D01*
X202125000Y-117280000D02*
X202125000Y-116080000D01*
X203875000Y-116080000D02*
X203875000Y-117280000D01*
D12*
X197836000Y-126398000D02*
X188184000Y-126398000D01*
X188184000Y-126398000D02*
X188184000Y-122588000D01*
X188184000Y-122588000D02*
X197836000Y-122588000D01*
X197836000Y-122588000D02*
X197836000Y-126398000D01*
X197836000Y-125128000D02*
X197074000Y-125128000D01*
X197074000Y-125128000D02*
X197074000Y-124112000D01*
X197074000Y-124112000D02*
X197836000Y-124112000D01*
D13*
X195542000Y-111253000D02*
X195415000Y-111253000D01*
X195415000Y-111253000D02*
X195415000Y-116587000D01*
X199225000Y-116587000D02*
X199225000Y-111253000D01*
X199225000Y-111253000D02*
X195542000Y-111253000D01*
X197828000Y-111253000D02*
X197828000Y-111761000D01*
X197828000Y-111761000D02*
X196812000Y-111761000D01*
X196812000Y-111761000D02*
X196812000Y-111253000D01*
X199225000Y-116587000D02*
X195415000Y-116587000D01*
D11*
X174180000Y-106570000D02*
X174180000Y-123380000D01*
X174180000Y-123380000D02*
X186690000Y-123380000D01*
X174190000Y-106560000D02*
X186700000Y-106560000D01*
X186710000Y-106570000D02*
X186690000Y-123380000D01*
X199310000Y-124090000D02*
X199310000Y-125090000D01*
X201010000Y-125090000D02*
X201010000Y-124090000D01*
X190830000Y-112540000D02*
X190830000Y-111540000D01*
X189130000Y-111540000D02*
X189130000Y-112540000D01*
X198270000Y-109140000D02*
X199270000Y-109140000D01*
X199270000Y-107440000D02*
X198270000Y-107440000D01*
X182530000Y-101700000D02*
X183530000Y-101700000D01*
X183530000Y-100000000D02*
X182530000Y-100000000D01*
X192330000Y-120465000D02*
X191130000Y-120465000D01*
X191130000Y-118715000D02*
X192330000Y-118715000D01*
X193625000Y-107430000D02*
X193625000Y-109430000D01*
X191475000Y-109430000D02*
X191475000Y-107430000D01*
X202265000Y-127870000D02*
X202265000Y-125870000D01*
X204415000Y-125870000D02*
X204415000Y-127870000D01*
X205474381Y-110946666D02*
X204998190Y-111280000D01*
X205474381Y-111518095D02*
X204474381Y-111518095D01*
X204474381Y-111137142D01*
X204522000Y-111041904D01*
X204569619Y-110994285D01*
X204664857Y-110946666D01*
X204807714Y-110946666D01*
X204902952Y-110994285D01*
X204950571Y-111041904D01*
X204998190Y-111137142D01*
X204998190Y-111518095D01*
X205474381Y-109994285D02*
X205474381Y-110565714D01*
X205474381Y-110280000D02*
X204474381Y-110280000D01*
X204617238Y-110375238D01*
X204712476Y-110470476D01*
X204760095Y-110565714D01*
X205552381Y-116846666D02*
X205076190Y-117180000D01*
X205552381Y-117418095D02*
X204552381Y-117418095D01*
X204552381Y-117037142D01*
X204600000Y-116941904D01*
X204647619Y-116894285D01*
X204742857Y-116846666D01*
X204885714Y-116846666D01*
X204980952Y-116894285D01*
X205028571Y-116941904D01*
X205076190Y-117037142D01*
X205076190Y-117418095D01*
X204647619Y-116465714D02*
X204600000Y-116418095D01*
X204552381Y-116322857D01*
X204552381Y-116084761D01*
X204600000Y-115989523D01*
X204647619Y-115941904D01*
X204742857Y-115894285D01*
X204838095Y-115894285D01*
X204980952Y-115941904D01*
X205552381Y-116513333D01*
X205552381Y-115894285D01*
D13*
X192139143Y-124825619D02*
X192139143Y-125648095D01*
X192193571Y-125744857D01*
X192248000Y-125793238D01*
X192356857Y-125841619D01*
X192574571Y-125841619D01*
X192683429Y-125793238D01*
X192737857Y-125744857D01*
X192792286Y-125648095D01*
X192792286Y-124825619D01*
X193935286Y-125841619D02*
X193282143Y-125841619D01*
X193608715Y-125841619D02*
X193608715Y-124825619D01*
X193499858Y-124970762D01*
X193391000Y-125067524D01*
X193282143Y-125115905D01*
D14*
X197583071Y-114790857D02*
X198508357Y-114790857D01*
X198617214Y-114736429D01*
X198671643Y-114682000D01*
X198726071Y-114573143D01*
X198726071Y-114355429D01*
X198671643Y-114246571D01*
X198617214Y-114192143D01*
X198508357Y-114137714D01*
X197583071Y-114137714D01*
X197691929Y-113647857D02*
X197637500Y-113593428D01*
X197583071Y-113484571D01*
X197583071Y-113212428D01*
X197637500Y-113103571D01*
X197691929Y-113049142D01*
X197800786Y-112994714D01*
X197909643Y-112994714D01*
X198072929Y-113049142D01*
X198726071Y-113702285D01*
X198726071Y-112994714D01*
D11*
X182258571Y-116392857D02*
X183472857Y-116392857D01*
X183615714Y-116321429D01*
X183687143Y-116250000D01*
X183758571Y-116107143D01*
X183758571Y-115821429D01*
X183687143Y-115678571D01*
X183615714Y-115607143D01*
X183472857Y-115535714D01*
X182258571Y-115535714D01*
X182258571Y-114964285D02*
X182258571Y-114035714D01*
X182830000Y-114535714D01*
X182830000Y-114321428D01*
X182901429Y-114178571D01*
X182972857Y-114107142D01*
X183115714Y-114035714D01*
X183472857Y-114035714D01*
X183615714Y-114107142D01*
X183687143Y-114178571D01*
X183758571Y-114321428D01*
X183758571Y-114750000D01*
X183687143Y-114892857D01*
X183615714Y-114964285D01*
X198417143Y-124756666D02*
X198464762Y-124804285D01*
X198512381Y-124947142D01*
X198512381Y-125042380D01*
X198464762Y-125185238D01*
X198369524Y-125280476D01*
X198274286Y-125328095D01*
X198083810Y-125375714D01*
X197940952Y-125375714D01*
X197750476Y-125328095D01*
X197655238Y-125280476D01*
X197560000Y-125185238D01*
X197512381Y-125042380D01*
X197512381Y-124947142D01*
X197560000Y-124804285D01*
X197607619Y-124756666D01*
X198512381Y-123804285D02*
X198512381Y-124375714D01*
X198512381Y-124090000D02*
X197512381Y-124090000D01*
X197655238Y-124185238D01*
X197750476Y-124280476D01*
X197798095Y-124375714D01*
X192437143Y-112206666D02*
X192484762Y-112254285D01*
X192532381Y-112397142D01*
X192532381Y-112492380D01*
X192484762Y-112635238D01*
X192389524Y-112730476D01*
X192294286Y-112778095D01*
X192103810Y-112825714D01*
X191960952Y-112825714D01*
X191770476Y-112778095D01*
X191675238Y-112730476D01*
X191580000Y-112635238D01*
X191532381Y-112492380D01*
X191532381Y-112397142D01*
X191580000Y-112254285D01*
X191627619Y-112206666D01*
X191627619Y-111825714D02*
X191580000Y-111778095D01*
X191532381Y-111682857D01*
X191532381Y-111444761D01*
X191580000Y-111349523D01*
X191627619Y-111301904D01*
X191722857Y-111254285D01*
X191818095Y-111254285D01*
X191960952Y-111301904D01*
X192532381Y-111873333D01*
X192532381Y-111254285D01*
X198603334Y-110747143D02*
X198555715Y-110794762D01*
X198412858Y-110842381D01*
X198317620Y-110842381D01*
X198174762Y-110794762D01*
X198079524Y-110699524D01*
X198031905Y-110604286D01*
X197984286Y-110413810D01*
X197984286Y-110270952D01*
X198031905Y-110080476D01*
X198079524Y-109985238D01*
X198174762Y-109890000D01*
X198317620Y-109842381D01*
X198412858Y-109842381D01*
X198555715Y-109890000D01*
X198603334Y-109937619D01*
X198936667Y-109842381D02*
X199555715Y-109842381D01*
X199222381Y-110223333D01*
X199365239Y-110223333D01*
X199460477Y-110270952D01*
X199508096Y-110318571D01*
X199555715Y-110413810D01*
X199555715Y-110651905D01*
X199508096Y-110747143D01*
X199460477Y-110794762D01*
X199365239Y-110842381D01*
X199079524Y-110842381D01*
X198984286Y-110794762D01*
X198936667Y-110747143D01*
X182863334Y-103307143D02*
X182815715Y-103354762D01*
X182672858Y-103402381D01*
X182577620Y-103402381D01*
X182434762Y-103354762D01*
X182339524Y-103259524D01*
X182291905Y-103164286D01*
X182244286Y-102973810D01*
X182244286Y-102830952D01*
X182291905Y-102640476D01*
X182339524Y-102545238D01*
X182434762Y-102450000D01*
X182577620Y-102402381D01*
X182672858Y-102402381D01*
X182815715Y-102450000D01*
X182863334Y-102497619D01*
X183720477Y-102735714D02*
X183720477Y-103402381D01*
X183482381Y-102354762D02*
X183244286Y-103069048D01*
X183863334Y-103069048D01*
X191563334Y-117942381D02*
X191230000Y-117466190D01*
X190991905Y-117942381D02*
X190991905Y-116942381D01*
X191372858Y-116942381D01*
X191468096Y-116990000D01*
X191515715Y-117037619D01*
X191563334Y-117132857D01*
X191563334Y-117275714D01*
X191515715Y-117370952D01*
X191468096Y-117418571D01*
X191372858Y-117466190D01*
X190991905Y-117466190D01*
X191896667Y-116942381D02*
X192515715Y-116942381D01*
X192182381Y-117323333D01*
X192325239Y-117323333D01*
X192420477Y-117370952D01*
X192468096Y-117418571D01*
X192515715Y-117513810D01*
X192515715Y-117751905D01*
X192468096Y-117847143D01*
X192420477Y-117894762D01*
X192325239Y-117942381D01*
X192039524Y-117942381D01*
X191944286Y-117894762D01*
X191896667Y-117847143D01*
X190702381Y-108596666D02*
X190226190Y-108930000D01*
X190702381Y-109168095D02*
X189702381Y-109168095D01*
X189702381Y-108787142D01*
X189750000Y-108691904D01*
X189797619Y-108644285D01*
X189892857Y-108596666D01*
X190035714Y-108596666D01*
X190130952Y-108644285D01*
X190178571Y-108691904D01*
X190226190Y-108787142D01*
X190226190Y-109168095D01*
X190035714Y-107739523D02*
X190702381Y-107739523D01*
X189654762Y-107977619D02*
X190369048Y-108215714D01*
X190369048Y-107596666D01*
X206092381Y-127036666D02*
X205616190Y-127370000D01*
X206092381Y-127608095D02*
X205092381Y-127608095D01*
X205092381Y-127227142D01*
X205140000Y-127131904D01*
X205187619Y-127084285D01*
X205282857Y-127036666D01*
X205425714Y-127036666D01*
X205520952Y-127084285D01*
X205568571Y-127131904D01*
X205616190Y-127227142D01*
X205616190Y-127608095D01*
X205092381Y-126131904D02*
X205092381Y-126608095D01*
X205568571Y-126655714D01*
X205520952Y-126608095D01*
X205473333Y-126512857D01*
X205473333Y-126274761D01*
X205520952Y-126179523D01*
X205568571Y-126131904D01*
X205663810Y-126084285D01*
X205901905Y-126084285D01*
X205997143Y-126131904D01*
X206044762Y-126179523D01*
X206092381Y-126274761D01*
X206092381Y-126512857D01*
X206044762Y-126608095D01*
X205997143Y-126655714D01*
M02*
